<svg width="93" height="94" viewBox="0 0 93 94" fill="none" xmlns="http://www.w3.org/2000/svg">
<rect width="93" height="94" fill="#07116C"/>
<g id="&#209;&#129;&#208;&#176;&#208;&#185;&#209;&#130;" clip-path="url(#clip0_0_1)">
<rect width="1920" height="1952.27" transform="translate(-906 -1561.27)" fill="white"/>
<g id="Site template" clip-path="url(#clip1_0_1)">
<rect width="1920" height="1952.27" transform="translate(-906 -1561.27)" fill="white"/>
<g id="Footer">
<rect width="1932.91" height="503.395" transform="translate(-918.908 -112.395)" fill="#1E2E3D"/>
<path id="logo" d="M91.5671 39.0704C91.5671 39.0704 93.5488 38.2202 92.5088 36.5389C91.4688 34.8575 90.121 32.7224 90.121 32.7224C90.121 32.7224 88.9055 30.3434 85.3931 28.3036C85.3931 28.3036 86.8691 25.2993 85.7098 24.3728C84.5505 23.4464 84.0576 22.9736 84.0576 22.9736C84.0576 22.9736 89.2829 20.0532 89.0106 17.0526L88.9987 17.0412C88.9489 16.2749 88.4478 14.6583 85.1593 14.1856C85.1593 14.1856 83.6659 13.8157 82.2457 13.4002L80.9864 13.0037C80.5373 12.8512 80.1567 12.7025 79.9329 12.5767C79.9329 12.5767 79.9102 9.30163 75.3401 10.5979L75.3157 10.6094C59.3956 -1.19447 38.0359 0.650833 38.0359 0.650833L34.2722 2.76302C22.086 3.6666 20.4946 8.58867 20.4946 8.58867C22.844 10.8267 27.0366 11.7569 27.0366 11.7569C23.1216 13.1562 13.9479 13.2477 13.9479 13.2477L14.468 14.6583C4.48448 17.6398 3.04413 25.5853 3.04413 25.5853C4.77789 26.3363 8.39881 26.3745 8.39881 26.3745C2.63533 30.6255 0.233797 37.8809 0.233797 37.8809C5.52723 39.0171 10.4197 38.0029 10.4197 38.0029C1.2617 45.6167 1.21503 48.9565 1.21503 48.9565L16.7859 47.9843C9.48765 53.3906 8.10023 56.9706 8.10023 56.9706L8.97209 57.7102C6.45001 62.9259 7.14531 65.3469 7.14531 65.3469C10.8313 64.4776 18.4241 61.0577 18.4241 61.0577L18.4285 61.0272L18.4522 61.0653L18.4347 62.8916C18.4347 62.8916 28.1921 59.3725 37.5656 51.6101C37.5656 51.6101 35.515 55.3731 35.7552 56.6389C35.7552 56.6389 48.6721 53.0246 51.9581 42.1434L53.5644 43.657C53.5016 43.8247 53.4389 43.9925 53.368 44.1603L53.0939 44.755C50.408 50.1575 42.7459 55.0795 42.3439 55.3121C39.9843 56.6808 34.8741 60.3028 32.6117 62.5065C25.0772 69.8267 20.913 70.0364 20.913 70.0364L19.1123 74.0777C24.4873 73.4105 28.9109 71.0696 31.5941 68.4465C38.8637 61.3475 43.5993 58.5795 43.5993 58.5795L43.6404 58.5223L43.6631 58.6291L43.6403 58.5338C43.6403 58.5338 41.9148 61.8012 40.5546 65.1639C39.1984 68.5266 36.737 71.1306 34.2416 72.709C34.2416 72.709 34.0816 74.6458 34.9706 75.599C34.9706 75.599 30.1277 83.4491 21.4921 87.9823C21.4921 87.9823 23.8756 90.0907 27.1826 90.1097C27.1826 90.1097 39.2496 79.8538 42.8946 70.0974C42.8946 70.0974 46.361 67.0664 49.9573 65.6938C49.9573 65.6938 48.8587 73.3991 41.2793 76.4339L39.8106 81.2187C39.8106 81.2187 49.5308 79.4993 53.2548 69.5636C53.2548 69.5636 66.5776 74.3827 78.4442 90.8684L83.1446 86.8805C83.1446 86.8805 75.1164 76.4835 62.6578 69.4988C62.6578 69.4988 62.6219 69.4721 62.558 69.4302C68.2896 65.4422 69.4289 60.0207 69.5738 59.1628L80.9895 59.1972C80.9895 59.1972 89.1063 57.7712 89.8342 56.7113C90.562 55.6514 91.3888 53.5583 91.3726 52.9902C91.3564 52.4222 89.4803 48.5905 89.4803 48.5905L90.5593 46.6194L89.7658 45.7463C89.7658 45.7463 89.1729 45.5099 90.6213 43.6227C90.6213 43.6227 89.2179 42.2883 89.6515 39.7986L91.551 39.0666L91.5671 39.0704ZM51.1203 60.3028L45.2145 64.6454L45.09 64.6187L45.0558 64.4738C46.2537 57.7331 52.5298 50.8209 52.5298 50.8209C50.4694 55.5714 51.1203 60.3028 51.1203 60.3028ZM85.6419 25.7721C85.6419 25.7721 81.6365 24.7122 78.9788 25.7949C76.3212 26.8739 73.0654 28.3761 72.0069 29.4627C72.0069 29.4627 71.7543 25.9208 80.5153 22.7868C80.5153 22.7868 84.4406 22.0853 85.6419 25.7759L85.6419 25.7721ZM87.3733 40.5345C87.3733 40.5345 88.9221 40.687 89.4632 42.8945C89.4632 42.8945 87.4473 44.4614 84.6691 45.5213C84.6691 45.5213 82.982 45.1782 82.4072 47.3933L81.4714 46.6156C81.4714 46.6156 80.1183 41.3999 84.2041 37.8618C84.2041 37.8618 83.8305 41.8269 87.3733 40.5307L87.3733 40.5345ZM80.9143 48.7201C80.9143 48.7201 79.4381 47.9881 79.3797 46.1123C79.3173 44.2365 79.3475 41.2131 79.3475 41.2131C79.3475 41.2131 75.6176 38.3079 73.1528 37.6903C73.1528 37.6903 74.0823 31.998 82.2226 33.504C82.2226 33.504 83.3182 34.3809 83.581 35.7535L84.7281 36.1118C84.7281 36.1118 78.8747 40.1685 80.9184 48.7201L80.9143 48.7201ZM78.4918 49.6962C78.4918 49.6962 77.6777 48.5676 76.2588 47.7746L77.0713 44.4004C77.0713 44.4004 77.3215 42.639 78.7139 41.5829C78.7139 41.5829 77.6315 47.2599 78.4918 49.6962ZM75.0548 32.4556C75.0548 32.4556 73.078 34.1064 72.5995 34.9147L71.9598 34.8537C71.9598 34.8537 72.6315 33.485 75.0548 32.4556ZM71.2942 34.0569C71.2942 34.0569 71.7793 33.3591 74.2558 32.2687C74.2558 32.2687 72.9851 32.9741 72.2468 33.9196L71.2942 34.0569ZM79.4013 29.8668C79.4013 29.8668 79.3782 31.8074 81.1697 31.5977L81.4636 30.7475C81.4636 30.7475 80.6896 30.4997 81.1319 29.9774L81.5477 29.9126L81.4678 29.2911L82.0046 29.2187C82.0046 29.2187 82.6908 30.2709 82.7301 31.4948C82.7301 31.4948 81.6315 31.7007 81.3637 32.1239C81.1001 32.5394 78.5306 32.5051 78.0619 32.3183C77.5932 32.1315 75.3733 31.8608 75.1168 32.0552C75.1168 32.0552 75.8286 30.9877 79.4012 29.8706L79.4013 29.8668ZM76.2297 30.534C76.2297 30.534 76.5965 29.0776 80.3491 27.7622C80.3491 27.7622 81.3848 27.1599 82.8198 27.381L82.9378 28.4523C82.9378 28.4523 79.783 28.2045 76.2298 30.5302L76.2297 30.534ZM88.6525 17.6017L88.6561 17.6284L88.648 17.6322L88.6565 17.6017L88.6525 17.6017ZM88.6309 17.4148L88.5303 17.4034C88.2824 15.8288 84.2577 17.88 84.2577 17.88C77.3057 20.7051 68.9031 29.0318 67.6487 30.3014L67.5387 30.3853C67.3065 29.9964 67.0221 29.5923 66.665 29.1996L72.8461 23.3168C81.1137 15.7144 85.9525 15.3675 86.899 15.3789C87.4698 15.4628 88.7578 15.825 88.635 17.411L88.6309 17.4148ZM85.2039 14.4525L86.7039 15.2112L86.7039 15.215L85.2315 14.4944L80.6083 14.1169L81.6759 16.1224L75.976 15.5352L77.1633 19.0695L70.1164 18.5968L70.9075 23.9611L64.8865 23.8696L66.1286 28.6696C65.6989 28.2884 65.1963 27.9338 64.6043 27.6326L64.8292 27.6784L63.672 22.8592L69.6896 22.905L68.9907 17.575L75.6718 17.9944L74.5663 14.3686L79.8151 14.9519L78.6602 12.8435L85.2039 14.4525ZM75.2914 10.6246L75.2832 10.6284L75.1585 10.6208L75.2914 10.6246ZM78.7372 12.2373L78.7328 12.264C66.694 14.727 60.8979 25.9284 60.4876 26.7519C59.7786 26.7557 59.0083 26.8167 58.1685 26.954L56.5453 28.0939L58.1991 26.7824C62.8034 18.1392 69.5537 13.8958 72.9408 12.2106C74.2698 11.6578 78.7935 9.93833 78.7372 12.2373ZM39.1255 1.6688C60.3674 0.753773 70.983 9.33594 72.2725 10.453C69.8893 9.76677 64.564 9.18344 64.564 9.18344L66.8778 10.8C56.6521 8.05109 39.6338 7.95578 39.6338 7.95578C38.4397 5.48903 36.2404 3.4531 36.2404 3.4531C36.9274 3.01083 39.1295 1.6688 39.1295 1.6688L39.1255 1.6688ZM39.1217 11.1622C62.7446 9.0805 66.3742 13.6899 66.3742 13.6899C65.5332 14.4868 61.6355 14.9443 61.6355 14.9443C58.2335 14.8032 50.2007 12.2335 50.2007 12.2335L51.6408 13.8234C49.7264 14.7536 42.8023 15.295 31.3755 16.0499C19.9488 16.801 16.5182 14.0979 16.5182 14.0979C20.5458 14.1436 39.1217 11.1622 39.1217 11.1622ZM23.1767 18.1545C28.3293 17.5483 51.0119 15.5886 51.0119 15.5886L48.7692 16.3778C48.7692 16.3778 45.8254 16.8849 44.6324 18.9513L50.7794 17.2357C50.7794 17.2357 52.4419 16.1681 60.654 17.4377C60.9199 17.4339 61.077 17.4339 61.1053 17.4301C61.1053 17.4301 62.2547 17.6207 63.2272 17.7885L63.1863 17.8304C62.6115 17.7427 61.8317 17.6207 60.7907 17.4568C60.7424 17.4492 60.6982 17.4453 60.65 17.4377C58.9536 17.472 52.4794 17.8075 41.6778 21.6811C41.6778 21.6811 32.354 23.2824 26.979 22.7944C21.781 22.3255 14.3161 22.6457 13.6881 22.9088C14.1444 22.539 18.3509 18.7226 23.1686 18.1545L23.1767 18.1545ZM9.50614 27.5602C9.50614 27.5602 17.9024 23.4311 38.2814 23.1604C38.2814 23.1604 15.3443 32.6653 13.0269 34.1865C13.0269 34.1865 14.6843 31.1822 20.1681 28.4943L15.2376 29.638C15.2376 29.638 10.1362 30.3243 9.50619 27.5564L9.50614 27.5602ZM18.5736 49.2005C18.5736 49.2005 18.3266 45.5442 42.4939 35.6353L41.9168 37.4386C41.9168 37.4386 28.3756 45.0829 27.5415 45.9636C26.7074 46.8481 20.974 49.8105 18.5736 49.2005ZM19.2028 57.7941C19.1308 57.756 19.0589 57.7179 18.9869 57.6797L18.983 57.6721C18.983 57.6721 24.2526 48.9756 31.6743 44.5415C39.096 40.1075 42.9113 37.4768 48.3785 36.8439L48.3406 36.9582C47.5528 38.2774 35.5318 57.9237 19.1988 57.7903L19.2028 57.7941ZM49.68 44.8885C47.7683 47.359 46.4409 49.2386 43.7321 50.8056L43.8648 47.9424C43.8648 47.9424 43.0518 51.347 40.8136 52.3917L40.7898 49.4865C40.7898 49.4865 40.2495 53.2647 37.769 54.6449C37.769 54.6449 37.537 49.3378 43.4283 45.1592C43.6562 44.9952 47.202 41.4762 49.0204 38.1859C49.0204 38.1859 51.5918 42.4141 49.6801 44.8846L49.68 44.8885ZM45.5018 30.2481L44.4928 28.3685C44.4928 28.3685 44.5592 33.7061 38.2447 36.1652C31.9302 38.6244 30.8665 38.9255 30.8665 38.9255L36.4623 33.7061L26.4041 38.5748C26.4041 38.5748 12.7008 43.1118 10.1255 40.8929C9.97828 40.7632 13.7514 34.8118 28.285 28.7955C42.8185 22.7792 47.905 19.6986 59.835 19.5461L54.6769 24.003C54.6769 24.003 49.3832 32.4022 45.5017 30.2519L45.5018 30.2481ZM52.3358 37.0269C52.3358 37.0269 51.0813 30.8047 58.1232 28.7573C58.1232 28.7573 64.9361 27.2399 67.13 34.2665C67.13 34.2665 68.3538 40.0922 62.0004 42.4522C62.0004 42.4522 54.1482 44.5415 52.3358 37.0269ZM56.5515 47.8318C61.0154 53.2686 55.4122 57.2908 55.4122 57.2908C54.9354 51.347 56.5515 47.8318 56.5515 47.8318ZM57.3702 67.0778C56.5683 66.8071 55.6778 66.5402 54.6903 66.2886L54.6582 66.2848L55.5264 61.5152C67.5256 53.2342 58.5065 45.1439 58.5065 45.1439L58.4263 45.1172L58.3588 45.0486L58.4109 45.0638C58.4109 45.0638 70.4837 45.3574 68.4606 32.7339L70.9745 37.0459L70.9869 37.3128C70.7693 38.1783 69.6154 42.6352 68.8765 43.6227C68.0596 44.7169 62.9693 47.1989 62.9693 47.1989C63.5081 52.7539 65.4304 56.4406 65.4304 56.4406C64.3044 63.2271 58.7984 66.3496 57.3663 67.074L57.3702 67.0778ZM90.1264 51.3661C90.1264 51.3661 91.5286 53.0703 89.552 55.8611L85.7089 56.4406C85.7089 56.4406 82.2851 57.8628 70.4249 55.6209C69.8658 53.5393 67.4083 49.5208 67.4083 49.5208C70.4352 49.4064 73.8054 48.6477 74.8724 48.3922C75.2496 48.5028 76.4475 48.9679 78.1391 50.7217C78.147 50.7294 78.1549 50.7408 78.1669 50.7484C78.1669 50.7484 76.8107 54.1111 77.3713 54.3513C77.932 54.5877 80.8744 55.9069 86.2435 54.7974C86.2435 54.7974 87.9546 51.6901 88.8189 48.9374L90.1305 51.3623L90.1264 51.3661ZM89.8163 46.7452L88.9519 48.3579C88.9519 48.3579 88.0685 47.8623 86.1003 47.7441C84.1321 47.6259 83.9545 48.8078 83.9545 48.8078L82.859 47.9309C83.832 46.9091 84.672 46.4669 84.672 46.4669C84.672 46.4669 87.9363 45.792 88.5937 45.7349C89.2511 45.6777 89.8204 46.7414 89.8204 46.7414L89.8163 46.7452ZM88.9702 36.9544C87.0476 37.0307 85.6946 37.858 85.6946 37.858C85.8448 36.3368 86.5776 36.0737 86.5776 36.0737L87.8092 35.2845C88.0853 31.9561 84.201 29.4322 84.201 29.4322C84.4918 29.3788 85.116 28.8145 85.116 28.8145C89.1585 31.8379 88.9408 32.1391 90.3951 34.4419C91.8453 36.7409 91.6398 37.9 91.6398 37.9C91.4551 37.858 90.8928 36.8782 88.9701 36.9582L88.9702 36.9544ZM51.3227 77.8179C51.3227 77.8179 49.7435 80.1322 47.4942 81.3903C47.4942 81.3903 53.0184 88.7906 53.9195 93.2056L60.3908 89.3243C60.3908 89.3243 55.0541 80.3266 51.3227 77.8179ZM54.6583 72.6175L52.9532 75.5837C52.9532 75.5837 60.5591 80.1588 67.0288 91.9665L70.796 88.741C70.796 88.741 66.4924 80.7651 54.6623 72.6175L54.6583 72.6175ZM57.2559 40.0884L59.2468 35.986L54.5284 35.7878C54.5284 35.7878 54.1578 38.6701 57.2559 40.0884ZM55.1535 33.424L59.402 35.2578L59.7061 30.7856C59.7061 30.7856 56.6821 30.698 55.1535 33.424ZM64.2695 38.041L60.0498 36.1728L59.7779 40.6412C59.7779 40.6412 62.8407 40.8395 64.2736 38.0372L64.2695 38.041ZM62.1849 31.2622L60.261 35.4713L64.9548 35.7039C64.9846 32.7072 62.1849 31.2622 62.1849 31.2622Z" fill="white"/>
</g>
</g>
</g>
<defs>
<clipPath id="clip0_0_1">
<rect width="1920" height="1952.27" fill="white" transform="translate(-906 -1561.27)"/>
</clipPath>
<clipPath id="clip1_0_1">
<rect width="1920" height="1952.27" fill="white" transform="translate(-906 -1561.27)"/>
</clipPath>
</defs>
</svg>
