<svg width="24" height="37" viewBox="0 0 24 37" fill="none" xmlns="http://www.w3.org/2000/svg">
<g clip-path="url(#clip0_0_12)">
<rect x="0.617321" y="1.34547" width="21.661" height="34.7068" rx="3.07684" stroke="white" stroke-width="1.23074"/>
<path d="M3.45483 1.48639H19.4544V3.20942C19.4544 3.88914 18.9034 4.44016 18.2237 4.44016H4.68557C4.00585 4.44016 3.45483 3.88914 3.45483 3.20942V1.48639Z" fill="white"/>
<path d="M0.919861 32.3218C0.919861 31.6896 1.43231 31.1772 2.06445 31.1772H20.8356C21.4678 31.1772 21.9802 31.6896 21.9802 32.3218V34.2959C21.9802 34.9756 21.4292 35.5266 20.7495 35.5266H2.1506C1.47088 35.5266 0.919861 34.9756 0.919861 34.2959V32.3218Z" fill="white"/>
<rect x="8.6236" y="2.20728" width="3.93836" height="1.23074" rx="0.492295" fill="black"/>
<circle cx="13.6628" cy="2.82264" r="0.615368" fill="black"/>
<circle cx="11.4447" cy="34.1519" r="1.3735" fill="black"/>
</g>
<defs>
<clipPath id="clip0_0_12">
<rect width="23" height="35.9375" fill="white" transform="translate(0.00292969 0.729736)"/>
</clipPath>
</defs>
</svg>
