<svg width="41" height="41" viewBox="0 0 41 41" fill="none" xmlns="http://www.w3.org/2000/svg">
<circle cx="20.098" cy="20.6044" r="20" fill="#1E2E3D"/>
<path d="M9.00089 20.5211C9.00089 20.5211 8.71305 20.6341 8.58234 20.7732C8.50138 20.8593 8.46385 20.9177 8.41492 21.0253C8.35893 21.1484 8.3144 21.2272 8.33122 21.3614C8.363 21.6151 8.83347 21.7816 8.83347 21.7816L10.0891 22.2017L11.847 22.79L14.1071 23.4622L14.6094 23.1261L15.1117 22.79L16.3673 22.0337L19.1297 20.269L22.3944 18.2521L25.5581 16.2353C25.5581 16.2353 25.7753 16.0674 25.9101 16.0673C26.045 16.0672 26.0623 16.0672 26.1463 16.1513C26.2304 16.2353 26.2304 16.3193 26.1463 16.4034C26.0135 16.5362 25.9548 16.5539 25.8264 16.6555C25.5173 16.9003 25.073 17.3278 25.073 17.3278L23.5663 18.7563L20.0505 21.9496L16.7858 24.8068L16.451 29.8488C16.451 29.8488 16.8324 29.7883 17.073 29.6807C17.369 29.5483 17.5141 29.4062 17.743 29.1765C18.0045 28.914 18.3763 28.5042 18.3763 28.5042L19.8831 27.1597L24.4871 30.5211C24.4871 30.5211 24.8638 30.8438 25.1568 30.9412L25.1629 30.9433C25.3787 31.015 25.5165 31.0608 25.7427 31.0253C25.9167 30.9979 26.0227 30.966 26.1613 30.8572C26.2901 30.756 26.3272 30.661 26.4124 30.5211C26.4887 30.3958 26.5665 30.1849 26.5665 30.1849L27.4169 26.1513L28.9237 19.1765L29.9278 14.7227C29.9278 14.7227 30.0119 14.3025 30.0119 14.0504C30.0119 13.7983 29.9837 13.7881 29.9282 13.6303C29.8795 13.492 29.837 13.4194 29.7608 13.2942C29.6756 13.1542 29.5619 13.0457 29.4236 12.9577C29.283 12.8681 29.2541 12.879 29.0875 12.8736C28.8887 12.8672 28.783 12.9153 28.5888 12.958C28.1848 13.047 27.5843 13.2942 27.5843 13.2942L26.9984 13.5463L22.1432 15.395L11.5122 19.5127L9.75427 20.1849L9.00089 20.5211Z" fill="white"/>
</svg>
